<?xml version="1.0" encoding="UTF-8"?>
<svg width="555px" height="432px" viewBox="0 0 555 432" version="1.1" xmlns="http://www.w3.org/2000/svg" xmlns:xlink="http://www.w3.org/1999/xlink">
    <!-- Generator: Sketch 55.2 (78181) - https://sketchapp.com -->
    <title>diagram-logstash-inputs</title>
    <desc>Created with Sketch.</desc>
    <defs>
        <polygon id="path-1" points="0.250340066 0.217793027 46.1039336 0.217793027 46.1039336 35.7980226 0.250340066 35.7980226"></polygon>
        <polygon id="path-3" points="0 0.000133333333 27.9998667 0.000133333333 27.9998667 18.0721333 0 18.0721333"></polygon>
        <polygon id="path-5" points="0.000133333333 0.831333333 33.3333333 0.831333333 33.3333333 22.6666667 0.000133333333 22.6666667"></polygon>
        <polygon id="path-7" points="0 0.000133333333 27.1172 0.000133333333 27.1172 10.6668 0 10.6668"></polygon>
    </defs>
    <g id="diagram-logstash-inputs" stroke="none" stroke-width="1" fill="none" fill-rule="evenodd">
        <path d="M126.5,404 C145.001539,404 160,389.001539 160,370.5 C160,351.998461 145.001539,337 126.5,337 C107.998461,337 93,351.998461 93,370.5 C93,389.001539 107.998461,404 126.5,404 Z M126.5,402 C109.10303,402 95,387.89697 95,370.5 C95,353.10303 109.10303,339 126.5,339 C143.89697,339 158,353.10303 158,370.5 C158,387.89697 143.89697,402 126.5,402 Z" id="Oval" fill="#BFC6D3" fill-rule="nonzero" transform="translate(126.500000, 370.500000) scale(1, -1) translate(-126.500000, -370.500000) "></path>
        <path d="M225.5,404 C244.001539,404 259,389.001539 259,370.5 C259,351.998461 244.001539,337 225.5,337 C206.998461,337 192,351.998461 192,370.5 C192,389.001539 206.998461,404 225.5,404 Z M225.5,402 C208.10303,402 194,387.89697 194,370.5 C194,353.10303 208.10303,339 225.5,339 C242.89697,339 257,353.10303 257,370.5 C257,387.89697 242.89697,402 225.5,402 Z" id="Oval" fill="#BFC6D3" fill-rule="nonzero" transform="translate(225.500000, 370.500000) scale(1, -1) translate(-225.500000, -370.500000) "></path>
        <path d="M320.5,404 C339.001539,404 354,389.001539 354,370.5 C354,351.998461 339.001539,337 320.5,337 C301.998461,337 287,351.998461 287,370.5 C287,389.001539 301.998461,404 320.5,404 Z M320.5,402 C303.10303,402 289,387.89697 289,370.5 C289,353.10303 303.10303,339 320.5,339 C337.89697,339 352,353.10303 352,370.5 C352,387.89697 337.89697,402 320.5,402 Z" id="Oval" fill="#BFC6D3" fill-rule="nonzero" transform="translate(320.500000, 370.500000) scale(1, -1) translate(-320.500000, -370.500000) "></path>
        <path d="M416.5,404 C435.001539,404 450,389.001539 450,370.5 C450,351.998461 435.001539,337 416.5,337 C397.998461,337 383,351.998461 383,370.5 C383,389.001539 397.998461,404 416.5,404 Z M416.5,402 C399.10303,402 385,387.89697 385,370.5 C385,353.10303 399.10303,339 416.5,339 C433.89697,339 448,353.10303 448,370.5 C448,387.89697 433.89697,402 416.5,402 Z" id="Oval" fill="#BFC6D3" fill-rule="nonzero" transform="translate(416.500000, 370.500000) scale(1, -1) translate(-416.500000, -370.500000) "></path>
        <path d="M84,110 C109.405098,110 130,89.4050985 130,64 C130,38.5949015 109.405098,18 84,18 C58.5949015,18 38,38.5949015 38,64 C38,89.4050985 58.5949015,110 84,110 Z M84,108 C59.699471,108 40,88.300529 40,64 C40,39.699471 59.699471,20 84,20 C108.300529,20 128,39.699471 128,64 C128,88.300529 108.300529,108 84,108 Z" id="Oval" fill="#0077CC" fill-rule="nonzero" transform="translate(84.000000, 64.000000) scale(1, -1) translate(-84.000000, -64.000000) "></path>
        <path d="M459,110 C484.405098,110 505,89.4050985 505,64 C505,38.5949015 484.405098,18 459,18 C433.594902,18 413,38.5949015 413,64 C413,89.4050985 433.594902,110 459,110 Z M459,108 C434.699471,108 415,88.300529 415,64 C415,39.699471 434.699471,20 459,20 C483.300529,20 503,39.699471 503,64 C503,88.300529 483.300529,108 459,108 Z" id="Oval" fill="#0077CC" fill-rule="nonzero" transform="translate(459.000000, 64.000000) scale(1, -1) translate(-459.000000, -64.000000) "></path>
        <path d="M332,110 C357.405098,110 378,89.4050985 378,64 C378,38.5949015 357.405098,18 332,18 C306.594902,18 286,38.5949015 286,64 C286,89.4050985 306.594902,110 332,110 Z M332,108 C307.699471,108 288,88.300529 288,64 C288,39.699471 307.699471,20 332,20 C356.300529,20 376,39.699471 376,64 C376,88.300529 356.300529,108 332,108 Z" id="Oval" fill="#0077CC" fill-rule="nonzero" transform="translate(332.000000, 64.000000) scale(1, -1) translate(-332.000000, -64.000000) "></path>
        <path d="M207,110 C232.405098,110 253,89.4050985 253,64 C253,38.5949015 232.405098,18 207,18 C181.594902,18 161,38.5949015 161,64 C161,89.4050985 181.594902,110 207,110 Z M207,108 C182.699471,108 163,88.300529 163,64 C163,39.699471 182.699471,20 207,20 C231.300529,20 251,39.699471 251,64 C251,88.300529 231.300529,108 207,108 Z" id="Oval" fill="#0077CC" fill-rule="nonzero" transform="translate(207.000000, 64.000000) scale(1, -1) translate(-207.000000, -64.000000) "></path>
        <path d="M240,187 L301,187 C305.970563,187 310,191.029437 310,196 L310,257 C310,261.970563 305.970563,266 301,266 L240,266 C235.029437,266 231,261.970563 231,257 L231,196 C231,191.029437 235.029437,187 240,187 Z M240,189 C236.134007,189 233,192.134007 233,196 L233,257 C233,260.865993 236.134007,264 240,264 L301,264 C304.865993,264 308,260.865993 308,257 L308,196 C308,192.134007 304.865993,189 301,189 L240,189 Z" id="Rectangle" fill="#BFC6D3" fill-rule="nonzero" transform="translate(270.500000, 226.500000) scale(1, -1) translate(-270.500000, -226.500000) "></path>
        <path d="M222,265 L222,287 C222,293.075132 226.924868,298 233,298 L260,298 C264.970563,298 269,302.029437 269,307 L269,338 L271,338 L271,307 C271,300.924868 266.075132,296 260,296 L233,296 C228.029437,296 224,291.970563 224,287 L224,265 L222,265 Z" id="Path-7" fill="#BFC6D3" fill-rule="nonzero" transform="translate(246.500000, 301.500000) scale(1, -1) translate(-246.500000, -301.500000) "></path>
        <path d="M318,265 L318,287 C318,291.970563 313.970563,296 309,296 L280,296 C273.924868,296 269,300.924868 269,307 L269,338 L271,338 L271,307 C271,302.029437 275.029437,298 280,298 L309,298 C315.075132,298 320,293.075132 320,287 L320,265 L318,265 Z" id="Path-8" fill="#BFC6D3" fill-rule="nonzero" transform="translate(294.500000, 301.500000) scale(1, -1) translate(-294.500000, -301.500000) "></path>
        <path d="M416,305 L416,327 C416,331.970563 411.970563,336 407,336 L297,336 L297,338 L407,338 C413.075132,338 418,333.075132 418,327 L418,305 L416,305 Z" id="Path-9" fill="#BFC6D3" fill-rule="nonzero" transform="translate(357.500000, 321.500000) scale(1, -1) translate(-357.500000, -321.500000) "></path>
        <path d="M125,305 L125,327 C125,333.075132 129.924868,338 136,338 L234,338 L234,336 L136,336 C131.029437,336 127,331.970563 127,327 L127,305 L125,305 Z" id="Path-10" fill="#BFC6D3" fill-rule="nonzero" transform="translate(179.500000, 321.500000) scale(1, -1) translate(-179.500000, -321.500000) "></path>
        <path d="M206,172 L206,144 C206,139.029437 210.029437,135 215,135 L260,135 C266.075132,135 271,130.075132 271,124 L271,108 L269,108 L269,124 C269,128.970563 264.970563,133 260,133 L215,133 C208.924868,133 204,137.924868 204,144 L204,172 L206,172 Z" id="Path-7" fill="#0077CC" fill-rule="nonzero" transform="translate(237.500000, 140.000000) scale(1, -1) translate(-237.500000, -140.000000) "></path>
        <path d="M336,187 L336,159 C336,152.924868 331.075132,148 325,148 L280,148 C275.029437,148 271,143.970563 271,139 L271,108 L269,108 L269,139 C269,145.075132 273.924868,150 280,150 L325,150 C329.970563,150 334,154.029437 334,159 L334,187 L336,187 Z" id="Path-8" fill="#0077CC" fill-rule="nonzero" transform="translate(302.500000, 147.500000) scale(1, -1) translate(-302.500000, -147.500000) "></path>
        <path d="M461,147 L461,119 C461,112.924868 456.075132,108 450,108 L297,108 L297,110 L450,110 C454.970563,110 459,114.029437 459,119 L459,147 L461,147 Z" id="Path-9" fill="#0077CC" fill-rule="nonzero" transform="translate(379.000000, 127.500000) scale(1, -1) translate(-379.000000, -127.500000) "></path>
        <path d="M85,147 L85,119 C85,114.029437 89.0294373,110 94,110 L234,110 L234,108 L94,108 C87.9248678,108 83,112.924868 83,119 L83,147 L85,147 Z" id="Path-10" fill="#0077CC" fill-rule="nonzero" transform="translate(158.500000, 127.500000) scale(1, -1) translate(-158.500000, -127.500000) "></path>
        <g id="Group-4" transform="translate(450.000000, 43.000000)" stroke="#8792A5" stroke-width="2">
            <circle id="Oval" cx="6.28492426" cy="21.3687425" r="6.28492426"></circle>
            <circle id="Oval" cx="6.28492426" cy="3.77095456" r="3.77095456"></circle>
            <circle id="Oval" cx="22.6257274" cy="11.4672844" r="3.77095456"></circle>
            <circle id="Oval" cx="22.6257274" cy="31.2702006" r="3.77095456"></circle>
            <circle id="Oval" cx="6.28492426" cy="38.9665304" r="3.77095456"></circle>
            <path d="M6.28492426,7.38748837 L6.28492426,15.0838182" id="Path-6"></path>
            <path d="M18.8547728,13.9812541 L11.3128637,17.7522087" id="Path-6"></path>
            <path d="M18.8547728,28.7562309 L11.3128637,24.9852763" id="Path-6"></path>
            <path d="M6.28492426,27.6536668 L6.28492426,36.4525607" id="Path-6"></path>
        </g>
        <g id="Group-3" transform="translate(317.000000, 45.000000)" stroke="#8792A5" stroke-width="2">
            <ellipse id="Oval" cx="17.0625" cy="6.703125" rx="17.0625" ry="6.703125"></ellipse>
            <path d="M0,7.921875 L0,32.296875 C0,35.9989087 7.63914146,39 17.0625,39 C26.4858585,39 34.125,35.9989087 34.125,32.296875 L34.125,7.921875" id="Path"></path>
            <path d="M0,23.765625 C0,27.4676587 7.63914146,30.46875 17.0625,30.46875 C26.4858585,30.46875 34.125,27.4676587 34.125,23.765625" id="Path"></path>
            <path d="M0,15.234375 C0,18.9364087 7.63914146,21.9375 17.0625,21.9375 C26.4858585,21.9375 34.125,18.9364087 34.125,15.234375" id="Path"></path>
        </g>
        <g id="Group-2" transform="translate(112.842105, 356.083333)" fill="#8792A5">
            <path d="M0,14.00035 C0,15.21135 0.16975,16.379475 0.4585,17.50035 L17.5,17.50035 C19.432875,17.50035 21,15.933225 21,14.00035 C21,12.067475 19.432875,10.50035 17.5,10.50035 L0.4585,10.50035 C0.16975,11.621225 0,12.78935 0,14.00035" id="Fill-1"></path>
            <path d="M23.558325,6.70425 C24.04745,6.253625 24.50245,5.76975 24.919825,5.25 C22.35345,2.05275 18.418575,-1.77635684e-15 13.999825,-1.77635684e-15 C8.46895,-1.77635684e-15 3.70895,3.21825 1.438325,7.875 L20.57195,7.875 C21.6797,7.875 22.744575,7.455 23.558325,6.70425" id="Fill-3"></path>
            <path d="M20.5718625,20.12535 L1.4382375,20.12535 C3.7097375,24.782975 8.4688625,28.00035 13.9997375,28.00035 C18.4184875,28.00035 22.3533625,25.948475 24.9197375,22.75035 C24.5023625,22.231475 24.0473625,21.746725 23.5582375,21.2961 C22.7444875,20.54535 21.6796125,20.12535 20.5718625,20.12535" id="Fill-6"></path>
        </g>
        <path d="M209.342105,360.083333 L241.342105,360.083333 L241.342105,381.25 L209.342105,381.25 L209.342105,360.083333 Z M211.342105,379.25 L239.342105,379.25 L239.342105,362.083333 L211.342105,362.083333 L211.342105,379.25 Z" id="Rectangle" fill="#8792A5" fill-rule="nonzero"></path>
        <polygon id="Path-3" fill="#8792A5" fill-rule="nonzero" points="210.896805 362.751283 209.787405 364.415384 225.342105 374.785184 240.896805 364.415384 239.787405 362.751283 225.342105 372.381483"></polygon>
        <polygon id="Path-4" fill="#8792A5" fill-rule="nonzero" points="210.942105 381.05 222.608772 372.3 221.408772 370.7 209.742105 379.45"></polygon>
        <polygon id="Path-5" fill="#8792A5" fill-rule="nonzero" points="240.928615 379.440058 228.845282 370.690058 227.672262 372.309942 239.755595 381.059942"></polygon>
        <g id="Group-26" transform="translate(393.157895, 352.000000)">
            <path d="M0.512094633,15.491947 C0.699707627,13.3667987 1.11308333,12.4491151 2.62313277,10.8499626 C0.729234463,12.1844188 0.256543785,12.7908948 0.512094633,15.491947" id="Fill-1" fill="#8792A5"></path>
            <path d="M24.0314739,0.261299435 C21.7811631,0.812902542 21.119553,1.20511299 20.3722366,3.81314266 C21.3225826,1.90304379 22.0422013,1.19962571 24.0314739,0.261299435" id="Fill-3" fill="#8792A5"></path>
            <path d="M22.2421999,0.423331215 C21.1076377,0.696650424 20.8912818,0.906735169 20.5508086,2.01856427 C21.0937888,1.20409393 21.4068256,0.939397599 22.2421999,0.423331215" id="Fill-5" fill="#8792A5"></path>
            <path d="M0.0236998588,13.7559781 C0.232216808,12.7993609 0.426623588,12.4385064 1.01637641,11.6535629 C0.0597591808,12.3217055 -0.0648806497,12.5963312 0.0236998588,13.7559781" id="Fill-7" fill="#8792A5"></path>
            <path d="M28.8777684,9.76862712 C29.1176412,8.70592232 29.5438206,7.68215113 31.1941879,6.88989124 C29.006589,7.43757486 28.5966102,8.35630367 28.8777684,9.76862712" id="Fill-9" fill="#8792A5"></path>
            <path d="M42.6730459,9.52543573 C42.1026292,9.80763912 41.7383778,9.70939054 41.1013298,9.64903037 C41.7493524,9.83481427 42.1593312,10.0686773 42.7955953,9.84213065 C44.0908566,9.38015325 44.715101,8.338875 45.0252634,7.11338065 C44.5183425,8.14054873 43.736012,8.99943997 42.6730459,9.52543573" id="Fill-11" fill="#8792A5"></path>
            <path d="M32.4703743,20.2234004 C32.4199435,20.5440148 32.3501766,20.94119 32.2997458,21.2618044 C32.4350989,20.8993821 32.5981497,20.4784287 32.7559746,20.1327295 C32.9229449,19.7674329 33.017274,19.7329414 33.371596,19.5398411 C33.6229661,19.4029202 34.0794562,19.2147846 34.3310876,19.0778637 C34.0724011,19.1215007 33.6085946,19.2166137 33.3499082,19.2602507 C32.6590325,19.3770516 32.5777684,19.5429767 32.4703743,20.2234004" id="Fill-13" fill="#8792A5"></path>
            <path d="M20.6672436,7.86589689 C19.8650544,8.65867938 19.0863821,11.3788065 18.8373637,12.4668573 C19.2295742,11.5627613 20.2104922,9.03416667 20.9630346,8.39058616 C21.1712903,8.21290254 21.3163114,8.10367938 21.4723072,8.02424435 C20.9337691,8.9275565 20.9732253,9.15227401 21.1621448,10.362613 C21.3228439,9.13241525 21.7485007,8.65685028 22.4466928,7.73890537 C23.2120388,7.54658898 23.9279993,7.31664548 24.7132041,7.01040254 C23.8281829,7.11048023 22.9439456,7.20193503 22.0578792,7.28607345 C21.3144823,7.35636299 21.1948072,7.34434322 20.6672436,7.86589689" id="Fill-15" fill="#8792A5"></path>
            <path d="M21.3227917,29.7651674 L21.3227917,29.7649061 L21.3227917,29.7651674 Z" id="Fill-17" fill="#000000"></path>
            <path d="M34.1052726,11.3546624 C34.0877655,11.1952698 34.0441285,11.0358771 33.971226,10.8832782 C33.7987684,10.5216398 33.4961836,10.2621695 33.1460424,10.1341328 C33.4640438,9.96428814 33.7760353,9.78608192 34.0195664,9.5647613 C33.3062189,9.89478249 32.4760706,9.81430226 31.8641073,10.227678 C31.3247853,10.5919294 30.5811271,11.7455664 30.0331822,12.2347189 C30.430096,12.0808136 30.8121158,11.8145494 31.1638249,11.5336525 C31.165654,11.7424308 31.2113814,11.9535607 31.3067556,12.1542387 C31.403959,12.357791 31.5445381,12.5258065 31.7094181,12.6595918 C31.6631681,12.611774 31.6221441,12.5587302 31.5923559,12.4962797 C31.4460282,12.1905593 31.576678,11.8221271 31.8831822,11.6760607 C32.1896864,11.5302556 32.5589025,11.6606441 32.7052302,11.9666257 C32.7188178,11.9956299 32.7297924,12.0254181 32.7389379,12.0552062 C32.4462825,12.272346 32.177928,12.5284195 31.9529492,12.8247331 C31.7559294,13.0844647 31.5926172,13.3750297 31.4755551,13.6972119 C32.5184011,12.4610042 34.030541,11.5276427 35.4522712,11.1283771 C35.055096,11.1226285 34.5844958,11.1970989 34.1052726,11.3546624" id="Fill-19" fill="#8792A5"></path>
            <g id="Group-23" transform="translate(1.567797, 0.180558)">
                <mask id="mask-2" fill="white">
                    <use xlink:href="#path-1"></use>
                </mask>
                <g id="Clip-22"></g>
                <path d="M45.1091928,14.9457267 C44.8583453,17.2605784 43.7405064,19.7873439 41.6987126,20.9271321 C39.0959089,22.3796956 36.0272083,21.4923227 33.4416504,20.6211504 C32.8895247,20.4353665 32.5059371,20.164399 32.0207041,19.8586787 C32.1529216,20.4533962 32.2130205,21.0828665 32.037166,21.6770614 C31.7580982,22.6193072 31.3076179,24.1614965 32.5872013,24.4457903 C33.0742634,24.5539682 33.2950614,24.5382903 33.9828016,24.1837069 C33.4262338,24.3093919 33.1455982,24.2785586 32.7630558,24.2077465 C32.4165727,24.1439894 32.2328792,23.923714 32.1359371,23.6642436 C32.2569188,23.7515177 32.4544612,23.7993355 32.7917987,23.8803383 C33.740577,24.1089753 34.644673,23.6524852 34.8213114,22.9947945 C34.9242634,22.610423 34.9070177,22.4086999 35.1252027,21.8847945 C35.3214386,21.9451547 35.5244682,22.0005501 35.7327239,22.0507196 C35.6154004,22.4340459 35.4978157,22.8173722 35.3802309,23.2004371 C35.0752945,24.1949428 33.8876886,24.9971321 32.8385713,24.9785798 C31.8691504,24.961334 31.2545742,24.3540742 30.585125,23.758834 C30.1236702,23.3480713 29.6802451,22.9555996 29.2404781,22.566786 C28.033536,22.186334 27.0662055,21.7413411 25.9462761,20.912238 C26.7435007,21.8487352 27.2841292,22.3671532 28.395697,22.8335727 C28.2339527,24.4823722 27.660923,25.6846109 27.1722931,27.2625982 C26.9512338,27.9762069 25.2054922,30.8353453 24.721827,31.1141518 C24.3766504,31.3127394 22.2162267,33.13269 21.8096448,33.3728242 C21.50706,33.774964 21.2410572,34.3302253 20.7861349,34.5706208 C19.3994188,35.3040883 18.5083877,33.8998651 17.7618552,32.7140883 C17.422166,32.1739823 16.4786137,30.6179442 17.3011843,30.1820968 C18.0788114,29.7697662 18.5143976,29.4755431 19.307964,28.9547733 C19.4242422,29.1672097 19.6243976,29.3720685 19.754786,29.5842436 C19.7260431,29.352471 19.6970388,29.1201758 19.6682959,28.8881419 C19.6162973,28.4677112 19.6181264,28.1256702 19.6515727,27.7023651 C19.6839739,27.2929089 19.7161137,26.8831914 19.7482535,26.4734739 C19.6288397,26.8899852 19.3902733,27.3064965 19.2711208,27.7227465 C19.2235643,27.8894555 19.1838468,28.024286 19.161375,28.1486645 C17.3808806,28.5126547 15.61319,28.5353877 13.8324343,28.2176476 C13.7187691,27.5583891 13.5802804,26.8714329 13.4645247,26.3788835 C13.4292493,26.9302253 13.4519823,28.4554301 13.4488468,29.3093566 C13.4467564,29.9707055 13.4190586,30.1972521 13.0778016,30.7598298 C12.7584936,31.2868708 12.6231405,31.4065459 12.1760572,32.2965318 C12.2131617,32.8583256 12.2139456,33.2298934 12.0647436,33.7629442 C11.8165092,34.6490106 9.31299929,33.9623157 8.65243432,33.7814965 C7.83927048,33.5588694 6.15780862,33.2280643 6.5805911,32.1436716 C6.9526815,31.1896674 7.18863489,30.1834032 7.37049929,28.8481631 C5.88030862,26.7015883 4.49437641,23.7598792 4.22863489,21.1536787 C4.02220833,19.1299145 4.14606427,17.8840388 4.58400212,16.6462634 C5.27801342,14.6849499 6.24874082,12.9870261 7.80634675,11.6199075 C9.90745551,9.77617867 11.8719047,9.03565607 14.9471377,8.56766879 C14.2076603,9.3954654 13.4757606,10.2708185 12.678536,11.2096674 C11.8711208,12.1600134 11.3911137,13.1197662 10.8787055,14.1592154 C10.170584,15.5947945 10.1857394,16.1411716 11.1245883,17.4014188 C11.9335713,18.4876405 12.370464,18.9765318 12.7234795,20.0392366 C12.4316081,20.6404866 12.3257818,21.1484527 12.2275332,21.9697168 C13.2181194,23.0522804 13.9541999,23.7943708 14.9160431,24.0230078 C15.8595953,24.247464 16.6474131,24.203827 17.491149,23.7724216 C19.3659725,22.8139753 21.1002168,21.5764612 23.2149131,21.5255078 C24.1929569,19.1202465 24.0941857,17.1108538 23.6243694,14.783721 C23.3037549,13.1944979 23.1751956,11.6899357 23.0753792,10.0696179 C22.6787267,11.7382761 22.6042564,13.2054725 22.8984795,14.8675982 C23.2533242,16.8704583 23.5289951,19.0831419 22.5423284,20.8435162 C20.6301391,20.9898439 18.9915304,22.153149 17.2682606,23.0457479 C16.5755558,23.404512 15.8543694,23.4395261 15.0874555,23.2289188 C14.3759371,23.0334668 13.8956688,22.5626052 13.1290162,21.6786292 C13.1169965,20.7904725 13.3174131,20.3810162 13.7250403,19.5769979 C14.3798566,18.2856561 15.1031335,17.08394 15.8964386,15.8132408 C14.9249273,16.986214 14.0043694,17.9658256 13.2398072,19.1445473 C12.9474131,18.3120473 12.5295953,17.8892648 11.8371518,16.9514612 C11.1611702,16.0356066 11.0900968,15.6347733 11.5957112,14.5749428 C12.1041999,13.5098863 12.5353439,12.5736504 13.4007677,11.6395049 C14.895923,10.0249357 16.2653934,8.22797952 17.9006052,6.63771116 C18.7882394,5.77437782 19.1485713,5.80416596 20.3262479,5.62569845 C21.3907818,5.46447669 22.4299696,5.26066314 23.5151462,5.00850918 C22.4655064,5.10649647 21.4508806,5.14229449 20.4289386,5.16790184 C20.4182253,5.16816314 20.4077733,5.16842444 20.3973213,5.16842444 C21.4025403,3.88413771 21.9862832,3.16869986 23.6194047,2.45901059 C27.6400191,0.712746469 30.1947436,0.524088277 33.3533312,3.17889054 C34.171721,3.86715325 34.8866363,4.5350346 35.7167846,5.12870692 C35.4157677,5.15457556 35.1562973,5.20840325 34.8134725,5.34323376 C35.2307677,5.26379873 35.7128651,5.34271116 36.1460996,5.42162359 C36.2678651,5.50079732 36.3927662,5.57761935 36.5210643,5.65313489 C37.1066363,5.99831144 37.4390092,6.18879873 37.8354004,6.74118573 C38.2545247,7.32440607 38.6036208,7.90762641 38.9111702,8.55016172 C38.709447,8.47830438 38.5403863,8.41742161 38.3896165,8.37247811 C38.2788256,8.32152472 38.1581052,8.28807839 38.0300685,8.27579732 C37.7766081,8.25123517 37.5343835,8.31368573 37.3321377,8.43806427 C37.3242987,8.44172246 37.3161984,8.44564195 37.3080982,8.44956144 C36.9838256,8.6073863 36.4816081,8.78716031 36.145577,8.84177189 C36.3172507,8.90082556 36.6961349,8.92303602 36.8748637,8.85222387 C36.8989032,8.84281709 36.9232041,8.83550071 36.9482888,8.82949082 C36.8675473,8.96667302 36.8150261,9.12266879 36.7985643,9.29094562 C36.7771377,9.51409534 36.8226038,9.72836088 36.9185007,9.91440607 C36.918762,9.91518997 36.9190233,9.91571257 36.9195459,9.91623517 C36.9284301,9.93766172 36.9404499,9.95699788 36.9514244,9.97711794 C36.8983806,9.87991455 36.8633665,9.7646815 36.8727733,9.66617161 C36.8973355,9.41297246 37.1134301,9.22614336 37.3666292,9.25070551 C37.6198284,9.27526766 37.8069188,9.50155297 37.7826179,9.75475212 C37.7771306,9.8088411 37.7627592,9.85927189 37.74081,9.90578319 C37.5090374,9.94523941 37.2770035,10.0134386 37.0381758,10.1012352 L37.0381758,10.1009739 C36.8845318,10.1576758 36.7280134,10.2222168 36.5665304,10.2925064 C37.3156758,10.1783185 37.9913962,10.158721 38.7227733,10.2551405 C38.7708524,10.4856066 38.8197154,10.7299216 38.8646589,10.9781561 C38.773988,10.9854725 38.6835784,10.9925275 38.5931688,10.9995826 L38.5709583,11.0014117 C38.2247366,10.7249569 37.8395812,10.7714682 37.3128016,10.891666 C35.711036,11.2567013 36.0875685,12.1555713 35.3507041,13.509625 C36.1157888,12.5744343 36.0590869,11.5961292 37.3057465,11.3005996 C37.5963114,11.2318778 37.7941151,11.1459103 37.9906123,11.1754371 C37.6365516,11.3533821 37.3303086,11.6486504 37.209327,11.991214 C36.8670247,12.9574993 37.0794612,13.7717083 36.7034513,14.6742366 C37.1690869,13.8676052 37.1973072,13.0800487 37.6135572,12.2310869 C37.7632818,11.9261504 38.3182818,11.4380431 38.6587549,11.4307267 C38.7525614,11.4286363 38.8458453,11.4265459 38.9393905,11.4244555 C39.0214386,11.9619484 39.0716081,12.4949993 39.0394682,12.9373792 C38.9814597,13.7445332 38.7718976,14.9425911 38.6464739,15.4009103 C39.0682112,14.858714 39.2602662,13.710303 39.4455275,12.9021038 C39.6383665,12.060197 39.5897648,11.0500134 39.4207041,10.1456561 C39.1891928,8.90474506 40.466947,9.10672952 41.2087761,8.52194138 C41.7541081,8.09210381 42.1295953,7.4056702 42.6297225,6.91939195 C43.1256688,6.43703319 43.9061702,7.14567726 44.1013609,7.61706144 C44.9471871,9.66355862 45.3326038,12.8827677 45.1091928,14.9457267 L45.1091928,14.9457267 Z M28.9561843,23.5035445 L28.9561843,23.5035445 L29.0829145,23.5197451 L28.9561843,23.5035445 Z M29.4523919,27.7439117 C29.4730346,28.4747662 29.4936773,29.2061434 29.5143199,29.9372592 C29.7484442,30.3469767 29.7850261,30.434512 29.7432182,30.9019767 C29.6585572,31.8572874 29.3400332,31.9202606 28.501262,31.9056278 C28.1202874,31.8990953 26.6031829,31.8920403 26.2180275,31.8588552 C25.6740021,31.8118213 25.3685431,31.7632196 25.2020953,31.6393637 C26.0570671,31.0117225 27.5096306,28.4214612 27.7926179,27.5296462 C28.0918058,26.5874004 28.4197366,25.7650911 28.663529,24.8944414 C28.7756264,25.2584315 28.8642069,25.619286 29.0272578,26.0054866 C29.2997931,26.6516801 29.4327945,27.0506843 29.4523919,27.7439117 L29.4523919,27.7439117 Z M6.51317585,28.9673157 C6.44889619,29.2341024 6.37468715,29.4940953 6.21895268,29.7026123 C5.48626907,30.6827465 3.6226815,29.2440318 3.08309816,28.6932126 C2.49334534,28.0911787 2.09878319,27.3780925 2.0047154,26.7094273 C1.93651624,26.2215812 2.002625,26.2095614 2.34309816,25.8646462 C2.80167867,25.4003171 3.26078178,24.9354654 3.71936229,24.4713976 C3.81970127,24.2030431 3.92056285,23.9349499 4.02090184,23.6668566 C4.56388206,25.5445544 5.48835946,27.3893284 6.51317585,28.9406631 C6.51317585,28.9495473 6.51317585,28.9584315 6.51317585,28.9673157 L6.51317585,28.9673157 Z M1.84192585,16.4589117 C1.66685523,16.0936151 1.56782274,15.7351123 1.44030862,15.2731349 C0.260802966,14.0512987 2.02379025,12.438036 2.98432698,11.8592578 C2.84531568,12.1581843 2.74654449,12.3842083 2.67939054,12.6170261 C2.38725777,13.6264258 2.81160805,14.5268637 1.89549223,15.2587634 C2.3261137,16.1273227 2.30599364,16.4738058 3.30755438,16.0724499 C3.69401624,15.9174993 4.01254025,15.7000982 4.29683404,15.4435021 C4.16148093,15.794166 4.0355346,16.1555431 3.91716596,16.5292013 C3.8975685,16.5908679 3.87875494,16.6530572 3.86046398,16.7147239 C3.14398093,17.0186151 2.20225777,17.2114541 1.84192585,16.4589117 L1.84192585,16.4589117 Z M3.18030155,12.5765247 C3.19545692,12.5190388 3.21165749,12.4625982 3.22890325,12.4058962 C3.47295692,12.5480431 3.53723658,12.8059456 3.56415042,13.1537352 C3.41834534,13.0081914 3.30206709,12.9094202 3.1136702,12.9308468 C3.12960946,12.8072521 3.15077472,12.6883609 3.18030155,12.5765247 L3.18030155,12.5765247 Z M39.0611561,8.87600212 C39.0258806,8.90187076 38.9919117,8.9295685 38.9602945,8.95857274 C38.9020247,8.82243573 38.8178863,8.6993637 38.7131052,8.59615042 C38.7836561,8.59353743 38.8555134,8.59144703 38.9299838,8.58987924 C38.9744047,8.68368573 39.018303,8.77906003 39.0611561,8.87600212 L39.0611561,8.87600212 Z M45.8523284,10.6159951 C45.6315304,9.22483686 45.2657112,7.87418008 44.7582677,6.90266879 C44.6963397,6.78430014 44.6025332,6.6638411 44.4862549,6.54913065 C44.234101,6.30037359 43.8609654,6.0652041 43.4750261,5.93246398 L43.396375,6.16188489 L43.4750261,5.93246398 C43.0663538,5.79188489 42.635471,5.76314195 42.2934301,5.94187076 C42.2045883,5.98838206 42.1220177,6.04848093 42.0483312,6.12321257 C41.8267493,6.34766879 41.6401815,6.6202041 41.4530911,6.8937846 C41.2448355,7.19793715 41.0352733,7.50365749 40.7849484,7.71740042 C40.4946448,7.96563489 40.1311773,8.11640466 39.7886137,8.25410946 C39.6383665,7.89064195 39.4656476,7.55853037 39.2701956,7.24627754 C39.0360713,6.87261935 38.7692846,6.52273941 38.4758453,6.17312076 C38.2359725,5.88752048 38.0026321,5.67299364 37.7499555,5.48067726 L37.6041504,5.67168715 L37.7499555,5.48067726 C37.4967564,5.28783828 37.2380699,5.12504873 36.9365304,4.93612924 C36.127286,4.42946963 35.4385007,3.82534534 34.7358665,3.20893997 C34.4165586,2.92882698 34.0941151,2.64610099 33.7787267,2.38610805 C32.1056264,1.00670833 30.5451462,0.33752048 28.8759654,0.232478107 C27.2182818,0.128219633 25.4675756,0.583664548 23.4012196,1.45353037 L23.4012196,1.45353037 C22.4035784,1.87343856 21.6630558,2.36964619 21.0179075,2.9659315 C20.4015021,3.53582556 19.8781194,4.19351624 19.3035219,4.95938489 C18.968536,4.98316314 18.6719612,5.03281003 18.3688538,5.15405297 C18.0354357,5.28731568 17.6999273,5.50341031 17.2972648,5.85851624 L17.4563962,6.03907415 L17.2972648,5.85851624 C17.0116645,6.1104089 16.738084,6.36413065 16.4739103,6.6196815 C16.2269823,6.85850918 15.9873708,7.10151766 15.7508948,7.34713912 C13.8692775,7.64946257 12.3362338,7.98340325 10.9633665,8.5151476 C9.55966596,9.05891172 8.32189054,9.80727331 7.05093008,10.9342578 C6.53146681,11.3946674 6.08203178,11.8812069 5.68851483,12.3967507 C5.30205297,12.9026264 4.97124788,13.4351547 4.68094421,13.9961645 C4.42643856,14.277584 4.17193291,14.5621391 3.89573941,14.8106349 C3.62712359,15.0525982 3.34047811,15.2564117 3.0193411,15.3802677 L3.0196024,15.380529 C2.83277331,15.4523863 2.75542867,15.4944555 2.74706709,15.4915812 C2.73739901,15.4863552 2.73217302,15.4565671 2.71806285,15.4011716 C3.17638206,14.9611434 3.2526815,14.3183468 3.29527331,13.6773792 C3.35066879,13.7437493 3.40423517,13.825536 3.45936935,13.9109809 C3.52025212,14.0050487 3.58296398,14.1019908 3.65769562,14.1963199 L3.97073234,14.5914047 L4.08073941,14.0985939 L3.84583121,14.0468566 L4.08073941,14.0985939 C4.17297811,13.6857408 4.24196116,13.1357055 4.13430579,12.6593566 L3.898875,12.7121391 L4.13430579,12.6593566 C4.06480014,12.3499781 3.92134675,12.0740459 3.67128319,11.8788552 C3.69506144,11.8164047 3.71779449,11.7586575 3.74000494,11.7016942 C3.81865607,11.5010162 3.8996589,11.2945897 3.96811935,11.0999216 L4.10373376,10.713721 L3.70002613,10.7837493 C3.16279449,10.8770332 2.00811229,11.5114682 1.19494845,12.3554654 C0.893147599,12.6687634 0.63341596,13.0149852 0.463048729,13.378714 C0.285626412,13.7570756 0.206191384,14.1524216 0.274913136,14.5488129 C0.335012006,14.8950346 0.508253531,15.2344626 0.822858051,15.555077 C0.880082627,15.786327 0.933126412,15.9867436 0.98982839,16.1678242 C1.05463065,16.3739894 1.1243976,16.5579442 1.21167161,16.739286 C1.4484089,17.2315742 1.82598658,17.5318072 2.26209534,17.672125 C2.61328178,17.7847451 3.00157274,17.7902323 3.38202472,17.7071391 C3.30755438,18.1374993 3.26078178,18.5871956 3.24249082,19.077916 C3.21871257,19.7207126 3.24196822,20.4298792 3.31251907,21.2532338 L3.55343715,21.233375 L3.31251907,21.2532338 C3.32819703,21.4337917 3.35145268,21.6329018 3.38176342,21.8487352 C3.40763206,22.0329513 3.43872669,22.2142931 3.47217302,22.3940671 C3.40109958,22.5879513 3.32950353,22.7823581 3.25816879,22.9765035 C3.14763912,23.2780431 3.03658686,23.5795826 2.9257959,23.8811222 C2.68226483,24.1223016 2.43847246,24.3637422 2.19494138,24.6049216 C1.96761088,24.8301617 1.74001907,25.0554018 1.51268856,25.2806419 C1.493875,25.2991942 1.41705297,25.3731419 1.34754732,25.4400346 C0.886876412,25.8834597 0.79568291,25.9715177 0.926332627,26.7520191 C1.00655155,27.230197 1.16359251,27.7146462 1.40947528,28.1818496 C1.63576059,28.6129936 1.93912924,29.0323792 2.32872669,29.4230219 C2.81500494,29.9106066 3.61170692,30.5157761 4.44551342,30.8327323 C4.92238489,31.0138129 5.41362782,31.1021321 5.87482133,31.0284456 C5.85130438,31.0992578 5.82831003,31.1700699 5.80270268,31.2414047 C5.73006144,31.4420826 5.64905862,31.6427606 5.55943291,31.8389965 L5.77840184,31.9388129 L5.55943291,31.8389965 C4.99371963,33.0796462 5.57458828,33.7274075 6.47842302,34.139738 C6.92994845,34.3453806 7.46665749,34.4851758 7.96547811,34.6150417 C8.06738489,34.6416942 8.16929167,34.6683468 8.29811229,34.7028383 C8.88891031,34.8630148 9.9098072,35.1559315 10.8421236,35.2149852 C11.8598849,35.2792648 12.7775685,35.0691801 13.0239739,34.1556773 C13.1211773,33.7935162 13.1776179,33.5160162 13.2006123,33.2447874 C13.2220388,32.9926335 13.2136773,32.7381278 13.1844117,32.4230007 C13.4739315,31.7820332 13.5977874,31.598601 13.80944,31.2886999 C13.8512479,31.2275558 13.9014174,31.1541306 13.916834,31.1311363 C14.1439032,30.79406 14.2505134,30.5547097 14.2891857,30.28531 C14.3262903,30.0253171 14.2949343,29.7663694 14.2481617,29.3699781 C14.2437196,29.3336575 14.2361419,29.2751264 14.2269965,29.2048369 C14.8224979,29.2813976 15.409899,29.3224216 15.9939032,29.3258185 C16.2904781,29.3279089 16.5865304,29.319286 16.8831052,29.3036081 C16.8073284,29.3425417 16.7328581,29.3809527 16.6518552,29.4224993 C16.6157959,29.4410516 16.5786914,29.4601264 16.5413256,29.4792013 C15.7558595,29.8831702 15.7229357,30.6487775 15.9690798,31.436334 C16.190923,32.1468072 16.6474131,32.8719131 16.933536,33.3127253 C17.5355699,34.2408609 18.1101674,35.026327 18.8065304,35.4527677 C19.5368623,35.9003736 20.3706688,35.9531561 21.4474838,35.370197 C21.9951674,35.0736222 22.1678863,34.77156 22.4007041,34.3639329 C22.4715162,34.2395544 22.5504287,34.10394 22.6377027,33.9701547 C22.863988,33.8204301 23.4270883,33.3558397 23.9802592,32.898827 C24.1678722,32.7433538 24.3560078,32.5884032 24.5687055,32.415423 C24.7147719,32.5230784 24.8914103,32.59781 25.1043694,32.6485021 C25.3816081,32.7148722 25.7116292,32.7446603 26.106714,32.7734032 C26.4027662,32.7948298 27.3680064,32.7945685 27.9912055,32.7940459 C28.1837832,32.7940459 28.3436984,32.7940459 28.4395953,32.7945685 L28.4406405,32.5539117 L28.4398566,32.7945685 C29.0831758,32.798488 29.6026391,32.7645191 29.9953722,32.5421532 C30.4139739,32.3051547 30.661947,31.8847239 30.7157747,31.1313976 C30.7398143,30.796673 30.7437338,30.5905078 30.6974838,30.3793778 L30.4623143,30.4313764 L30.6974838,30.3793778 C30.6543694,30.1826194 30.569447,30.0036292 30.4241645,29.7418072 C30.4155417,29.4164894 30.4063962,29.090649 30.3977733,28.7650699 C30.3886278,28.4196321 30.379221,28.0739329 30.3703369,27.7284951 C30.3593623,27.3211292 30.3141575,26.9908468 30.2315869,26.6652677 C30.1498001,26.341779 30.032738,26.0308326 29.8762196,25.6579583 C29.7701321,25.4055431 29.6841645,25.1737705 29.5997648,24.9461787 L29.5997648,24.9453948 L29.3766151,25.0279654 L29.3758312,25.0282267 L29.5997648,24.9453948 C29.4651956,24.5824499 29.3324555,24.2286504 29.1464103,23.8508114 C29.1586914,23.7776476 29.1707112,23.6992578 29.1824696,23.6156419 C29.3021448,23.730875 29.4218199,23.8463694 29.5414951,23.9613411 L30.0701038,24.470875 C30.4738114,24.8596886 30.8427662,25.2132267 31.276262,25.4687775 C31.7241292,25.7332126 32.2281758,25.8865953 32.8803792,25.855762 C33.5636773,25.8236222 34.2942705,25.5356702 34.8963044,25.0917225 C35.4784795,24.6624075 35.9459442,24.082584 36.1408736,23.4413552 C36.1973143,23.2558326 36.2534936,23.07031 36.309673,22.8850487 C36.3546165,22.7368919 36.39956,22.5887352 36.4447648,22.4405784 C37.4024273,22.6031066 38.4306405,22.6556278 39.4235784,22.5513694 C40.3820247,22.4510304 41.3078086,22.2067154 42.1063397,21.7807973 C43.2798355,21.1544626 44.1596306,20.2318143 44.7922366,19.1367083 L44.7924979,19.1369696 C45.4993129,17.9125205 45.8951815,16.4704089 46.0454287,14.9859668 C46.166149,13.7954866 46.1000403,12.1769979 45.8523284,10.6159951 L45.8523284,10.6159951 Z" id="Fill-21" fill="#8792A5" mask="url(#mask-2)"></path>
            </g>
            <path d="M38.5389492,10.1946236 C38.5561949,10.2223213 38.5757924,10.2463609 38.5959124,10.26831 C38.5757924,10.2463609 38.5561949,10.22206 38.5389492,10.1946236" id="Fill-24" fill="#8792A5"></path>
        </g>
        <g id="Storage-Content-Delivery_AmazonS3" transform="translate(305.342105, 353.583333)" fill-rule="nonzero">
            <polygon id="Path" fill="#727985" points="2.50158728 5.90218248 0.351785711 6.99662691 0.351785711 25.7976188 2.50158728 26.8920632 7.77837294 16.3775792"></polygon>
            <polygon id="Path" fill="#969DAA" points="13.6805554 24.1559521 2.50158728 26.8920632 2.50158728 5.90218248 13.6805554 8.59920626 18.9573411 16.4166665"></polygon>
            <polygon id="Path" fill="#727985" points="13.6805554 24.1559521 24.8595236 26.8920632 26.7748013 16.6511903 24.8595236 5.90218248 13.6805554 8.59920626"></polygon>
            <polygon id="Path" fill="#969DAA" points="24.8595236 5.90218248 27.0093251 6.99662691 27.0093251 25.7976188 24.8595236 26.8920632"></polygon>
            <polygon id="Path" fill="#727985" points="8.79464277 19.856349 13.6805554 20.4817458 17.5501982 16.4166665 13.6805554 12.3515872 8.79464277 12.976984"></polygon>
            <polygon id="Path" fill="#676E7A" points="18.5664681 9.65456339 13.6805554 10.5535713 8.79464277 9.65456339 13.6805554 0.31269841"></polygon>
            <polygon id="Path" fill="#BDC4D1" points="18.5664681 23.1787696 13.6805554 22.2797617 8.79464277 23.1787696 13.6805554 32.5206346"></polygon>
            <polygon id="Path" fill="#969DAA" points="18.5664681 9.65456339 13.6805554 8.44285706 13.6805554 0.31269841 18.5664681 2.77519838"></polygon>
            <polygon id="Path" fill="#727985" points="8.79464277 9.65456339 13.6805554 8.44285706 13.6805554 0.31269841 8.79464277 2.77519838"></polygon>
            <polygon id="Path" fill="#969DAA" points="13.6805554 32.5206346 18.5664681 30.0581346 18.5664681 23.1787696 13.6805554 24.3904759"></polygon>
            <polygon id="Path" fill="#727985" points="13.6805554 32.5206346 8.79464277 30.0581346 8.79464277 23.1787696 13.6805554 24.3904759"></polygon>
            <polygon id="Path" fill="#969DAA" points="18.5664681 19.856349 13.6805554 20.4817458 13.6805554 12.3515872 18.5664681 12.976984"></polygon>
        </g>
        <g id="Group-10" transform="translate(69.000000, 43.000000)">
            <g id="Group-3">
                <mask id="mask-4" fill="white">
                    <use xlink:href="#path-3"></use>
                </mask>
                <g id="Clip-2"></g>
                <path d="M27.1172,18.0721333 C27.6785333,16.5988 27.9998667,15.0041333 27.9998667,13.3334667 C27.9998667,5.96946667 22.0305333,0.000133333333 14.6665333,0.000133333333 L-0.000133333333,0.000133333333 L-0.000133333333,16.0001333 L19.9998667,16.0001333 C22.6198667,16.0001333 25.0558667,16.7668 27.1172,18.0721333" id="Fill-1" fill="#0077CC" mask="url(#mask-4)"></path>
            </g>
            <g id="Group-6" transform="translate(0.000000, 20.000000)">
                <mask id="mask-6" fill="white">
                    <use xlink:href="#path-5"></use>
                </mask>
                <g id="Clip-5"></g>
                <path d="M30.2694667,0.831333333 C27.4668,6.63933333 21.5361333,10.6673333 14.6668,10.6673333 L0.000133333333,10.6673333 L0.000133333333,22.6673333 L20.0001333,22.6673333 C27.3628,22.6673333 33.3334667,16.6966667 33.3334667,9.334 C33.3334667,6.102 32.1828,3.13933333 30.2694667,0.831333333" id="Fill-4" fill="#00BFB3" mask="url(#mask-6)"></path>
            </g>
            <g id="Group-9" transform="translate(0.000000, 16.000000)">
                <mask id="mask-8" fill="white">
                    <use xlink:href="#path-7"></use>
                </mask>
                <g id="Clip-8"></g>
                <path d="M27.1172,2.07213333 C25.0558667,0.7668 22.6198667,0.000133333333 19.9998667,0.000133333333 L-0.000133333333,0.000133333333 L-0.000133333333,10.6668 L14.6665333,10.6668 C20.3598667,10.6668 25.2038667,7.09346667 27.1172,2.07213333" id="Fill-7" fill="#343741" mask="url(#mask-8)"></path>
            </g>
        </g>
        <g id="Storage-Content-Delivery_AmazonS3" transform="translate(190.342105, 43.000000)" fill-rule="nonzero">
            <polygon id="Path" fill="#8C3123" points="3.27619048 7.7297619 0.460714286 9.16309524 0.460714286 33.7857143 3.27619048 35.2190476 10.1869048 21.4488095"></polygon>
            <polygon id="Path" fill="#E05243" points="17.9166667 31.6357143 3.27619048 35.2190476 3.27619048 7.7297619 17.9166667 11.2619048 24.827381 21.5"></polygon>
            <polygon id="Path" fill="#8C3123" points="17.9166667 31.6357143 32.5571429 35.2190476 35.0654762 21.8071429 32.5571429 7.7297619 17.9166667 11.2619048"></polygon>
            <polygon id="Path" fill="#E05243" points="32.5571429 7.7297619 35.372619 9.16309524 35.372619 33.7857143 32.5571429 35.2190476"></polygon>
            <polygon id="Path" fill="#8C3123" points="11.5178571 26.0047619 17.9166667 26.8238095 22.9845238 21.5 17.9166667 16.1761905 11.5178571 16.9952381"></polygon>
            <polygon id="Path" fill="#5E1F18" points="24.3154762 12.6440476 17.9166667 13.8214286 11.5178571 12.6440476 17.9166667 0.40952381"></polygon>
            <polygon id="Path" fill="#F2B0A9" points="24.3154762 30.3559524 17.9166667 29.1785714 11.5178571 30.3559524 17.9166667 42.5904762"></polygon>
            <polygon id="Path" fill="#E05243" points="24.3154762 12.6440476 17.9166667 11.0571429 17.9166667 0.40952381 24.3154762 3.63452381"></polygon>
            <polygon id="Path" fill="#8C3123" points="11.5178571 12.6440476 17.9166667 11.0571429 17.9166667 0.40952381 11.5178571 3.63452381"></polygon>
            <polygon id="Path" fill="#E05243" points="17.9166667 42.5904762 24.3154762 39.3654762 24.3154762 30.3559524 17.9166667 31.9428571"></polygon>
            <polygon id="Path" fill="#8C3123" points="17.9166667 42.5904762 11.5178571 39.3654762 11.5178571 30.3559524 17.9166667 31.9428571"></polygon>
            <polygon id="Path" fill="#E05243" points="24.3154762 26.0047619 17.9166667 26.8238095 17.9166667 16.1761905 24.3154762 16.9952381"></polygon>
        </g>
        <path d="M252.5,204.5 L287.5,204.5 C289.432997,204.5 291,206.067003 291,208 L291,222 C291,223.932997 289.432997,225.5 287.5,225.5 L252.5,225.5 C250.567003,225.5 249,223.932997 249,222 L249,208 C249,206.067003 250.567003,204.5 252.5,204.5 Z M252.5,207.5 C252.223858,207.5 252,207.723858 252,208 L252,222 C252,222.276142 252.223858,222.5 252.5,222.5 L287.5,222.5 C287.776142,222.5 288,222.276142 288,222 L288,208 C288,207.723858 287.776142,207.5 287.5,207.5 L252.5,207.5 Z" id="Rectangle" fill="#BFC6D3" fill-rule="nonzero"></path>
        <polygon id="Path-2" fill="#BFC6D3" fill-rule="nonzero" points="250.5 233 289.5 233 289.5 230 250.5 230"></polygon>
        <polygon id="Path-11" fill="#BFC6D3" fill-rule="nonzero" points="250.5 237.5 250.5 249 253.5 249 253.5 237.5"></polygon>
        <polygon id="Path-11" fill="#BFC6D3" fill-rule="nonzero" points="286.5 237.5 286.5 249 289.5 249 289.5 237.5"></polygon>
        <polygon id="Path-11" fill="#BFC6D3" fill-rule="nonzero" points="274.5 237.5 274.5 249 277.5 249 277.5 237.5"></polygon>
        <polygon id="Path-11" fill="#BFC6D3" fill-rule="nonzero" points="262.5 237.5 262.5 249 265.5 249 265.5 237.5"></polygon>
    </g>
</svg>