<?xml version="1.0" encoding="UTF-8"?>
<svg width="555px" height="432px" viewBox="0 0 555 432" version="1.1" xmlns="http://www.w3.org/2000/svg" xmlns:xlink="http://www.w3.org/1999/xlink">
    <!-- Generator: Sketch 55.2 (78181) - https://sketchapp.com -->
    <title>diagram-logstash-outputs</title>
    <desc>Created with Sketch.</desc>
    <g id="diagram-logstash-outputs" stroke="none" stroke-width="1" fill="none" fill-rule="evenodd">
        <path d="M126.5,85 C145.001539,85 160,70.0015391 160,51.5 C160,32.9984609 145.001539,18 126.5,18 C107.998461,18 93,32.9984609 93,51.5 C93,70.0015391 107.998461,85 126.5,85 Z M126.5,83 C109.10303,83 95,68.8969696 95,51.5 C95,34.1030304 109.10303,20 126.5,20 C143.89697,20 158,34.1030304 158,51.5 C158,68.8969696 143.89697,83 126.5,83 Z" id="Oval" fill="#BFC6D3" fill-rule="nonzero"></path>
        <path d="M225.5,85 C244.001539,85 259,70.0015391 259,51.5 C259,32.9984609 244.001539,18 225.5,18 C206.998461,18 192,32.9984609 192,51.5 C192,70.0015391 206.998461,85 225.5,85 Z M225.5,83 C208.10303,83 194,68.8969696 194,51.5 C194,34.1030304 208.10303,20 225.5,20 C242.89697,20 257,34.1030304 257,51.5 C257,68.8969696 242.89697,83 225.5,83 Z" id="Oval" fill="#BFC6D3" fill-rule="nonzero"></path>
        <path d="M320.5,85 C339.001539,85 354,70.0015391 354,51.5 C354,32.9984609 339.001539,18 320.5,18 C301.998461,18 287,32.9984609 287,51.5 C287,70.0015391 301.998461,85 320.5,85 Z M320.5,83 C303.10303,83 289,68.8969696 289,51.5 C289,34.1030304 303.10303,20 320.5,20 C337.89697,20 352,34.1030304 352,51.5 C352,68.8969696 337.89697,83 320.5,83 Z" id="Oval" fill="#BFC6D3" fill-rule="nonzero"></path>
        <path d="M416.5,85 C435.001539,85 450,70.0015391 450,51.5 C450,32.9984609 435.001539,18 416.5,18 C397.998461,18 383,32.9984609 383,51.5 C383,70.0015391 397.998461,85 416.5,85 Z M416.5,83 C399.10303,83 385,68.8969696 385,51.5 C385,34.1030304 399.10303,20 416.5,20 C433.89697,20 448,34.1030304 448,51.5 C448,68.8969696 433.89697,83 416.5,83 Z" id="Oval" fill="#BFC6D3" fill-rule="nonzero"></path>
        <path d="M84,404 C109.405098,404 130,383.405098 130,358 C130,332.594902 109.405098,312 84,312 C58.5949015,312 38,332.594902 38,358 C38,383.405098 58.5949015,404 84,404 Z M84,402 C59.699471,402 40,382.300529 40,358 C40,333.699471 59.699471,314 84,314 C108.300529,314 128,333.699471 128,358 C128,382.300529 108.300529,402 84,402 Z" id="Oval" fill="#0077CC" fill-rule="nonzero"></path>
        <path d="M459,404 C484.405098,404 505,383.405098 505,358 C505,332.594902 484.405098,312 459,312 C433.594902,312 413,332.594902 413,358 C413,383.405098 433.594902,404 459,404 Z M459,402 C434.699471,402 415,382.300529 415,358 C415,333.699471 434.699471,314 459,314 C483.300529,314 503,333.699471 503,358 C503,382.300529 483.300529,402 459,402 Z" id="Oval" fill="#0077CC" fill-rule="nonzero"></path>
        <path d="M332,404 C357.405098,404 378,383.405098 378,358 C378,332.594902 357.405098,312 332,312 C306.594902,312 286,332.594902 286,358 C286,383.405098 306.594902,404 332,404 Z M332,402 C307.699471,402 288,382.300529 288,358 C288,333.699471 307.699471,314 332,314 C356.300529,314 376,333.699471 376,358 C376,382.300529 356.300529,402 332,402 Z" id="Oval" fill="#0077CC" fill-rule="nonzero"></path>
        <path d="M207,404 C232.405098,404 253,383.405098 253,358 C253,332.594902 232.405098,312 207,312 C181.594902,312 161,332.594902 161,358 C161,383.405098 181.594902,404 207,404 Z M207,402 C182.699471,402 163,382.300529 163,358 C163,333.699471 182.699471,314 207,314 C231.300529,314 251,333.699471 251,358 C251,382.300529 231.300529,402 207,402 Z" id="Oval" fill="#0077CC" fill-rule="nonzero"></path>
        <g id="Group" transform="translate(114.000000, 36.000000)" fill="#8792A5">
            <path d="M11,20 L0,20 L0,0 L11,0 C16.522,0 21,4.477 21,10 C21,15.523 16.522,20 11,20" id="Fill-1"></path>
            <path d="M22.7031,15.6241 C20.6001,19.9801 16.1521,23.0001 11.0001,23.0001 L0.0001,23.0001 L0.0001,32.0001 L15.0001,32.0001 C20.5231,32.0001 25.0001,27.5231 25.0001,22.0001 C25.0001,19.5761 24.1371,17.3551 22.7031,15.6241" id="Fill-4"></path>
        </g>
        <path d="M321,47 C329.242074,47 336,44.3451003 336,40.5 C336,36.6548997 329.242074,34 321,34 C312.757926,34 306,36.6548997 306,40.5 C306,44.3451003 312.757926,47 321,47 Z M321,45 C313.778101,45 308,42.7300319 308,40.5 C308,38.2699681 313.778101,36 321,36 C328.221899,36 334,38.2699681 334,40.5 C334,42.7300319 328.221899,45 321,45 Z" id="Oval" fill="#8792A5" fill-rule="nonzero"></path>
        <path d="M306,41.5 L306,61.5 C306,65.3451003 312.757926,68 321,68 C329.242074,68 336,65.3451003 336,61.5 L336,41.5 L334,41.5 L334,61.5 C334,63.7300319 328.221899,66 321,66 C313.778101,66 308,63.7300319 308,61.5 L308,41.5 L306,41.5 Z" id="Path" fill="#8792A5" fill-rule="nonzero"></path>
        <path d="M306,54.5 C306,58.3451003 312.757926,61 321,61 C329.242074,61 336,58.3451003 336,54.5 L334,54.5 C334,56.7300319 328.221899,59 321,59 C313.778101,59 308,56.7300319 308,54.5 L306,54.5 Z" id="Path" fill="#8792A5" fill-rule="nonzero"></path>
        <path d="M306,47.5 C306,51.3451003 312.757926,54 321,54 C329.242074,54 336,51.3451003 336,47.5 L334,47.5 C334,49.7300319 328.221899,52 321,52 C313.778101,52 308,49.7300319 308,47.5 L306,47.5 Z" id="Path" fill="#8792A5" fill-rule="nonzero"></path>
        <path d="M411,57 C414.313708,57 417,54.3137085 417,51 C417,47.6862915 414.313708,45 411,45 C407.686292,45 405,47.6862915 405,51 C405,54.3137085 407.686292,57 411,57 Z M411,55 C408.790861,55 407,53.209139 407,51 C407,48.790861 408.790861,47 411,47 C413.209139,47 415,48.790861 415,51 C415,53.209139 413.209139,55 411,55 Z" id="Oval" fill="#8792A5" fill-rule="nonzero"></path>
        <path d="M411,41 C413.209139,41 415,39.209139 415,37 C415,34.790861 413.209139,33 411,33 C408.790861,33 407,34.790861 407,37 C407,39.209139 408.790861,41 411,41 Z M411,39 C409.895431,39 409,38.1045695 409,37 C409,35.8954305 409.895431,35 411,35 C412.104569,35 413,35.8954305 413,37 C413,38.1045695 412.104569,39 411,39 Z" id="Oval" fill="#8792A5" fill-rule="nonzero"></path>
        <path d="M424,48 C426.209139,48 428,46.209139 428,44 C428,41.790861 426.209139,40 424,40 C421.790861,40 420,41.790861 420,44 C420,46.209139 421.790861,48 424,48 Z M424,46 C422.895431,46 422,45.1045695 422,44 C422,42.8954305 422.895431,42 424,42 C425.104569,42 426,42.8954305 426,44 C426,45.1045695 425.104569,46 424,46 Z" id="Oval" fill="#8792A5" fill-rule="nonzero"></path>
        <path d="M424,62 C426.209139,62 428,60.209139 428,58 C428,55.790861 426.209139,54 424,54 C421.790861,54 420,55.790861 420,58 C420,60.209139 421.790861,62 424,62 Z M424,60 C422.895431,60 422,59.1045695 422,58 C422,56.8954305 422.895431,56 424,56 C425.104569,56 426,56.8954305 426,58 C426,59.1045695 425.104569,60 424,60 Z" id="Oval" fill="#8792A5" fill-rule="nonzero"></path>
        <path d="M411,69 C413.209139,69 415,67.209139 415,65 C415,62.790861 413.209139,61 411,61 C408.790861,61 407,62.790861 407,65 C407,67.209139 408.790861,69 411,69 Z M411,67 C409.895431,67 409,66.1045695 409,65 C409,63.8954305 409.895431,63 411,63 C412.104569,63 413,63.8954305 413,65 C413,66.1045695 412.104569,67 411,67 Z" id="Oval" fill="#8792A5" fill-rule="nonzero"></path>
        <polygon id="Path-6" fill="#8792A5" fill-rule="nonzero" points="410 39 410 46 412 46 412 39"></polygon>
        <polygon id="Path-6" fill="#8792A5" fill-rule="nonzero" points="420.552786 45.1055728 414.552786 48.1055728 415.447214 49.8944272 421.447214 46.8944272"></polygon>
        <polygon id="Path-6" fill="#8792A5" fill-rule="nonzero" points="421.447214 55.1055728 415.447214 52.1055728 414.552786 53.8944272 420.552786 56.8944272"></polygon>
        <polygon id="Path-6" fill="#8792A5" fill-rule="nonzero" points="410 56 410 63 412 63 412 56"></polygon>
        <g id="logo-elastic-search-64x64-color" transform="translate(64.000000, 336.000000)">
            <path d="M37.781975,7.7664 L37.78435,7.7616 C33.863225,3.0192 27.968475,0 21.3746833,0 C12.9838083,0 5.72580833,4.8896 2.22743333,12 L30.0877667,12 C32.086725,12 34.0326417,11.304 35.5621417,10.0032 C36.356975,9.3272 37.10035,8.5912 37.781975,7.7664" id="Fill-1" fill="#FEC514"></path>
            <path d="M0,21.6004 C0,23.538 0.2565,25.414 0.729916667,27.2004 L26.9166667,27.2004 C29.97725,27.2004 32.4583333,24.6932 32.4583333,21.6004 C32.4583333,18.5076 29.97725,16.0004 26.9166667,16.0004 L0.729916667,16.0004 C0.2565,17.7868 0,19.6628 0,21.6004" id="Fill-4" fill="#343741"></path>
            <path d="M37.781975,35.4344 L37.78435,35.4392 C33.863225,40.1816 27.968475,43.2008 21.3746833,43.2008 C12.9838083,43.2008 5.72580833,38.3112 2.22743333,31.2008 L30.0877667,31.2008 C32.086725,31.2008 34.0326417,31.8968 35.5621417,33.1976 C36.356975,33.8736 37.10035,34.6096 37.781975,35.4344" id="Fill-6" fill="#00BFB3"></path>
        </g>
        <rect id="Rectangle" stroke="#BFC6D3" stroke-width="2" x="232" y="157" width="77" height="77" rx="8"></rect>
        <path d="M222,84 L222,106 C222,112.075132 226.924868,117 233,117 L260,117 C264.970563,117 269,121.029437 269,126 L269,157 L271,157 L271,126 C271,119.924868 266.075132,115 260,115 L233,115 C228.029437,115 224,110.970563 224,106 L224,84 L222,84 Z" id="Path-7" fill="#BFC6D3" fill-rule="nonzero"></path>
        <path d="M318,84 L318,106 C318,110.970563 313.970563,115 309,115 L280,115 C273.924868,115 269,119.924868 269,126 L269,157 L271,157 L271,126 C271,121.029437 275.029437,117 280,117 L309,117 C315.075132,117 320,112.075132 320,106 L320,84 L318,84 Z" id="Path-8" fill="#BFC6D3" fill-rule="nonzero"></path>
        <path d="M416,84 L416,106 C416,110.970563 411.970563,115 407,115 L297,115 L297,117 L407,117 C413.075132,117 418,112.075132 418,106 L418,84 L416,84 Z" id="Path-9" fill="#BFC6D3" fill-rule="nonzero"></path>
        <path d="M125,84 L125,106 C125,112.075132 129.924868,117 136,117 L234,117 L234,115 L136,115 C131.029437,115 127,110.970563 127,106 L127,84 L125,84 Z" id="Path-10" fill="#BFC6D3" fill-rule="nonzero"></path>
        <path d="M206,314 L206,286 C206,281.029437 210.029437,277 215,277 L260,277 C266.075132,277 271,272.075132 271,266 L271,250 L269,250 L269,266 C269,270.970563 264.970563,275 260,275 L215,275 C208.924868,275 204,279.924868 204,286 L204,314 L206,314 Z" id="Path-7" fill="#0077CC" fill-rule="nonzero"></path>
        <path d="M336,314 L336,286 C336,279.924868 331.075132,275 325,275 L280,275 C275.029437,275 271,270.970563 271,266 L271,235 L269,235 L269,266 C269,272.075132 273.924868,277 280,277 L325,277 C329.970563,277 334,281.029437 334,286 L334,314 L336,314 Z" id="Path-8" fill="#0077CC" fill-rule="nonzero"></path>
        <path d="M461,314 L461,286 C461,279.924868 456.075132,275 450,275 L297,275 L297,277 L450,277 C454.970563,277 459,281.029437 459,286 L459,314 L461,314 Z" id="Path-9" fill="#0077CC" fill-rule="nonzero"></path>
        <path d="M85,314 L85,286 C85,281.029437 89.0294373,277 94,277 L234,277 L234,275 L94,275 C87.9248678,275 83,279.924868 83,286 L83,314 L85,314 Z" id="Path-10" fill="#0077CC" fill-rule="nonzero"></path>
        <g id="Slack_Mark" transform="translate(436.000000, 334.000000)" fill-rule="nonzero">
            <g id="Group" transform="translate(0.000000, 24.637097)" fill="#E01E5A">
                <path d="M10.0064516,5.00322581 C10.0064516,7.69435484 7.80806452,9.89274194 5.11693548,9.89274194 C2.42580645,9.89274194 0.227419355,7.69435484 0.227419355,5.00322581 C0.227419355,2.31209677 2.42580645,0.113709677 5.11693548,0.113709677 L10.0064516,0.113709677 L10.0064516,5.00322581 Z" id="Path"></path>
                <path d="M12.4701613,5.00322581 C12.4701613,2.31209677 14.6685484,0.113709677 17.3596774,0.113709677 C20.0508065,0.113709677 22.2491935,2.31209677 22.2491935,5.00322581 L22.2491935,17.2459677 C22.2491935,19.9370968 20.0508065,22.1354839 17.3596774,22.1354839 C14.6685484,22.1354839 12.4701613,19.9370968 12.4701613,17.2459677 L12.4701613,5.00322581 Z" id="Path"></path>
            </g>
            <g id="Group" fill="#36C5F0">
                <path d="M17.3596774,10.0064516 C14.6685484,10.0064516 12.4701613,7.80806452 12.4701613,5.11693548 C12.4701613,2.42580645 14.6685484,0.227419355 17.3596774,0.227419355 C20.0508065,0.227419355 22.2491935,2.42580645 22.2491935,5.11693548 L22.2491935,10.0064516 L17.3596774,10.0064516 Z" id="Path"></path>
                <path d="M17.3596774,12.4701613 C20.0508065,12.4701613 22.2491935,14.6685484 22.2491935,17.3596774 C22.2491935,20.0508065 20.0508065,22.2491935 17.3596774,22.2491935 L5.11693548,22.2491935 C2.42580645,22.2491935 0.227419355,20.0508065 0.227419355,17.3596774 C0.227419355,14.6685484 2.42580645,12.4701613 5.11693548,12.4701613 L17.3596774,12.4701613 Z" id="Path"></path>
            </g>
            <g id="Group" transform="translate(24.637097, 0.000000)" fill="#2EB67D">
                <path d="M12.3564516,17.3596774 C12.3564516,14.6685484 14.5548387,12.4701613 17.2459677,12.4701613 C19.9370968,12.4701613 22.1354839,14.6685484 22.1354839,17.3596774 C22.1354839,20.0508065 19.9370968,22.2491935 17.2459677,22.2491935 L12.3564516,22.2491935 L12.3564516,17.3596774 Z" id="Path"></path>
                <path d="M9.89274194,17.3596774 C9.89274194,20.0508065 7.69435484,22.2491935 5.00322581,22.2491935 C2.31209677,22.2491935 0.113709677,20.0508065 0.113709677,17.3596774 L0.113709677,5.11693548 C0.113709677,2.42580645 2.31209677,0.227419355 5.00322581,0.227419355 C7.69435484,0.227419355 9.89274194,2.42580645 9.89274194,5.11693548 L9.89274194,17.3596774 Z" id="Path"></path>
            </g>
            <g id="Group" transform="translate(24.637097, 24.637097)" fill="#ECB22E">
                <path d="M5.00322581,12.3564516 C7.69435484,12.3564516 9.89274194,14.5548387 9.89274194,17.2459677 C9.89274194,19.9370968 7.69435484,22.1354839 5.00322581,22.1354839 C2.31209677,22.1354839 0.113709677,19.9370968 0.113709677,17.2459677 L0.113709677,12.3564516 L5.00322581,12.3564516 Z" id="Path"></path>
                <path d="M5.00322581,9.89274194 C2.31209677,9.89274194 0.113709677,7.69435484 0.113709677,5.00322581 C0.113709677,2.31209677 2.31209677,0.113709677 5.00322581,0.113709677 L17.2459677,0.113709677 C19.9370968,0.113709677 22.1354839,2.31209677 22.1354839,5.00322581 C22.1354839,7.69435484 19.9370968,9.89274194 17.2459677,9.89274194 L5.00322581,9.89274194 Z" id="Path"></path>
            </g>
        </g>
        <path d="M176.960938,363.445312 C177.033855,363.971357 177.177082,364.364582 177.390625,364.625 C177.781252,365.098961 178.450516,365.335938 179.398438,365.335938 C179.966149,365.335938 180.427082,365.273438 180.78125,365.148438 C181.453128,364.908853 181.789062,364.463545 181.789062,363.8125 C181.789062,363.43229 181.622398,363.138022 181.289062,362.929688 C180.955727,362.726561 180.432295,362.546876 179.71875,362.390625 L178.5,362.117188 C177.302077,361.846353 176.473961,361.552085 176.015625,361.234375 C175.239579,360.703122 174.851562,359.872401 174.851562,358.742188 C174.851562,357.710932 175.226559,356.85417 175.976562,356.171875 C176.726566,355.48958 177.828118,355.148438 179.28125,355.148438 C180.494798,355.148438 181.529944,355.470049 182.386719,356.113281 C183.243494,356.756514 183.692708,357.690098 183.734375,358.914062 L181.421875,358.914062 C181.380208,358.221351 181.078128,357.729168 180.515625,357.4375 C180.140623,357.244791 179.674482,357.148438 179.117188,357.148438 C178.497393,357.148438 178.002606,357.273436 177.632812,357.523438 C177.263019,357.773439 177.078125,358.122394 177.078125,358.570312 C177.078125,358.981773 177.260415,359.289061 177.625,359.492188 C177.859376,359.627605 178.359371,359.786457 179.125,359.96875 L181.109375,360.445312 C181.979171,360.653647 182.635414,360.93229 183.078125,361.28125 C183.765628,361.822919 184.109375,362.606766 184.109375,363.632812 C184.109375,364.684901 183.707035,365.55859 182.902344,366.253906 C182.097652,366.949222 180.960945,367.296875 179.492188,367.296875 C177.99218,367.296875 176.812504,366.954431 175.953125,366.269531 C175.093746,365.584632 174.664062,364.643235 174.664062,363.445312 L176.960938,363.445312 Z M192.460938,355.484375 L195.1875,355.484375 L191.335938,362.671875 L191.335938,367 L188.929688,367 L188.929688,362.671875 L184.945312,355.484375 L187.78125,355.484375 L190.171875,360.5 L192.460938,355.484375 Z M198.304688,363.445312 C198.377605,363.971357 198.520832,364.364582 198.734375,364.625 C199.125002,365.098961 199.794266,365.335938 200.742188,365.335938 C201.309899,365.335938 201.770832,365.273438 202.125,365.148438 C202.796878,364.908853 203.132812,364.463545 203.132812,363.8125 C203.132812,363.43229 202.966148,363.138022 202.632812,362.929688 C202.299477,362.726561 201.776045,362.546876 201.0625,362.390625 L199.84375,362.117188 C198.645827,361.846353 197.817711,361.552085 197.359375,361.234375 C196.583329,360.703122 196.195312,359.872401 196.195312,358.742188 C196.195312,357.710932 196.570309,356.85417 197.320312,356.171875 C198.070316,355.48958 199.171868,355.148438 200.625,355.148438 C201.838548,355.148438 202.873694,355.470049 203.730469,356.113281 C204.587244,356.756514 205.036458,357.690098 205.078125,358.914062 L202.765625,358.914062 C202.723958,358.221351 202.421878,357.729168 201.859375,357.4375 C201.484373,357.244791 201.018232,357.148438 200.460938,357.148438 C199.841143,357.148438 199.346356,357.273436 198.976562,357.523438 C198.606769,357.773439 198.421875,358.122394 198.421875,358.570312 C198.421875,358.981773 198.604165,359.289061 198.96875,359.492188 C199.203126,359.627605 199.703121,359.786457 200.46875,359.96875 L202.453125,360.445312 C203.322921,360.653647 203.979164,360.93229 204.421875,361.28125 C205.109378,361.822919 205.453125,362.606766 205.453125,363.632812 C205.453125,364.684901 205.050785,365.55859 204.246094,366.253906 C203.441402,366.949222 202.304695,367.296875 200.835938,367.296875 C199.33593,367.296875 198.156254,366.954431 197.296875,366.269531 C196.437496,365.584632 196.007812,364.643235 196.007812,363.445312 L198.304688,363.445312 Z M207.234375,355.484375 L209.640625,355.484375 L209.640625,364.929688 L215.34375,364.929688 L215.34375,367 L207.234375,367 L207.234375,355.484375 Z M222.101562,365.28125 C223.054692,365.28125 223.811195,364.929691 224.371094,364.226562 C224.930992,363.523434 225.210938,362.523444 225.210938,361.226562 C225.210938,359.934889 224.930992,358.936201 224.371094,358.230469 C223.811195,357.524736 223.054692,357.171875 222.101562,357.171875 C221.148433,357.171875 220.388024,357.523434 219.820312,358.226562 C219.252601,358.929691 218.96875,359.929681 218.96875,361.226562 C218.96875,362.523444 219.252601,363.523434 219.820312,364.226562 C220.388024,364.929691 221.148433,365.28125 222.101562,365.28125 Z M227.617188,361.226562 C227.617188,363.294281 227.036464,364.877599 225.875,365.976562 C225.005204,366.8724 223.747404,367.320312 222.101562,367.320312 C220.455721,367.320312 219.197921,366.8724 218.328125,365.976562 C217.161452,364.877599 216.578125,363.294281 216.578125,361.226562 C216.578125,359.117177 217.161452,357.533859 218.328125,356.476562 C219.197921,355.580725 220.455721,355.132812 222.101562,355.132812 C223.747404,355.132812 225.005204,355.580725 225.875,356.476562 C227.036464,357.533859 227.617188,359.117177 227.617188,361.226562 Z M237.195312,359.078125 C237.01302,358.291663 236.567712,357.742189 235.859375,357.429688 C235.46354,357.257812 235.02344,357.171875 234.539062,357.171875 C233.611975,357.171875 232.850263,357.522132 232.253906,358.222656 C231.657549,358.923181 231.359375,359.976555 231.359375,361.382812 C231.359375,362.799486 231.682288,363.80208 232.328125,364.390625 C232.973962,364.97917 233.708329,365.273438 234.53125,365.273438 C235.338546,365.273438 235.999997,365.040367 236.515625,364.574219 C237.031253,364.108071 237.348958,363.4974 237.46875,362.742188 L234.804688,362.742188 L234.804688,360.820312 L239.601562,360.820312 L239.601562,367 L238.007812,367 L237.765625,365.5625 C237.302081,366.109378 236.885419,366.494791 236.515625,366.71875 C235.880205,367.109377 235.098963,367.304688 234.171875,367.304688 C232.645826,367.304688 231.395838,366.776047 230.421875,365.71875 C229.406245,364.656245 228.898438,363.203134 228.898438,361.359375 C228.898438,359.494782 229.411453,358.000006 230.4375,356.875 C231.463547,355.749994 232.820304,355.1875 234.507812,355.1875 C235.971361,355.1875 237.147131,355.55859 238.035156,356.300781 C238.923182,357.042972 239.432291,357.968744 239.5625,359.078125 L237.195312,359.078125 Z" id="SYSLOG" fill="#000000" fill-rule="nonzero"></path>
        <path d="M304.813477,364.261719 C304.87793,364.805992 305.017577,365.192707 305.232422,365.421875 C305.611981,365.83008 306.313797,366.03418 307.337891,366.03418 C307.939456,366.03418 308.417479,365.944662 308.771973,365.765625 C309.126467,365.586588 309.303711,365.318036 309.303711,364.959961 C309.303711,364.616209 309.160483,364.354819 308.874023,364.175781 C308.587564,363.996744 307.524098,363.688804 305.683594,363.251953 C304.358717,362.922524 303.424156,362.510745 302.879883,362.016602 C302.335609,361.52962 302.063477,360.827804 302.063477,359.911133 C302.063477,358.829747 302.487789,357.900557 303.336426,357.123535 C304.185063,356.346513 305.379224,355.958008 306.918945,355.958008 C308.37989,355.958008 309.570471,356.249834 310.490723,356.833496 C311.410975,357.417158 311.939127,358.425123 312.075195,359.857422 L309.013672,359.857422 C308.970703,359.46354 308.859701,359.152019 308.680664,358.922852 C308.344074,358.507485 307.771163,358.299805 306.961914,358.299805 C306.295895,358.299805 305.821453,358.403645 305.538574,358.611328 C305.255695,358.819011 305.114258,359.062499 305.114258,359.341797 C305.114258,359.69271 305.264647,359.946939 305.56543,360.104492 C305.866212,360.269207 306.929678,360.552081 308.755859,360.953125 C309.973313,361.239585 310.88639,361.672849 311.495117,362.25293 C312.096683,362.840172 312.397461,363.574214 312.397461,364.455078 C312.397461,365.61524 311.965987,366.562334 311.103027,367.296387 C310.240067,368.03044 308.906259,368.397461 307.101562,368.397461 C305.261059,368.397461 303.902185,368.008956 303.024902,367.231934 C302.147619,366.454911 301.708984,365.46485 301.708984,364.261719 L304.813477,364.261719 Z M313.460938,358.579102 L313.460938,356.398438 L315.09375,356.398438 L315.09375,353.132812 L318.123047,353.132812 L318.123047,356.398438 L320.024414,356.398438 L320.024414,358.579102 L318.123047,358.579102 L318.123047,364.766602 C318.123047,365.246422 318.183919,365.54541 318.305664,365.663574 C318.427409,365.781739 318.799802,365.84082 319.422852,365.84082 C319.515951,365.84082 319.61442,365.83903 319.718262,365.835449 C319.822103,365.831868 319.924153,365.826497 320.024414,365.819336 L320.024414,368.107422 L318.574219,368.161133 C317.127597,368.211263 316.139326,367.960615 315.609375,367.40918 C315.265623,367.058266 315.09375,366.517582 315.09375,365.787109 L315.09375,358.579102 L313.460938,358.579102 Z M328.446289,362.306641 C328.252929,362.428386 328.057781,362.526855 327.86084,362.602051 C327.663899,362.677246 327.393556,362.74707 327.049805,362.811523 L326.362305,362.94043 C325.71777,363.055014 325.255861,363.194661 324.976562,363.359375 C324.503904,363.638673 324.267578,364.071937 324.267578,364.65918 C324.267578,365.181969 324.412596,365.559732 324.702637,365.79248 C324.992677,366.025229 325.345376,366.141602 325.760742,366.141602 C326.4196,366.141602 327.026527,365.948244 327.581543,365.561523 C328.136559,365.174803 328.424805,364.469406 328.446289,363.445312 L328.446289,362.306641 Z M326.587891,360.87793 C327.153649,360.806315 327.558267,360.716797 327.801758,360.609375 C328.238609,360.423176 328.457031,360.13314 328.457031,359.739258 C328.457031,359.259438 328.290529,358.928224 327.95752,358.745605 C327.62451,358.562987 327.135745,358.47168 326.491211,358.47168 C325.7679,358.47168 325.255861,358.650714 324.955078,359.008789 C324.740233,359.273764 324.597006,359.631834 324.525391,360.083008 L321.571289,360.083008 C321.635743,359.058914 321.922198,358.217451 322.430664,357.558594 C323.239913,356.527339 324.629222,356.011719 326.598633,356.011719 C327.88054,356.011719 329.019201,356.265948 330.014648,356.774414 C331.010096,357.28288 331.507812,358.242506 331.507812,359.65332 L331.507812,365.024414 C331.507812,365.396812 331.514974,365.847979 331.529297,366.37793 C331.550781,366.778973 331.611653,367.051106 331.711914,367.194336 C331.812175,367.337566 331.962564,367.455729 332.163086,367.548828 L332.163086,368 L328.833008,368 C328.739908,367.763671 328.675456,367.541668 328.639648,367.333984 C328.603841,367.126301 328.575195,366.889975 328.553711,366.625 C328.131183,367.083336 327.644208,367.473631 327.092773,367.795898 C326.433916,368.175458 325.689132,368.365234 324.858398,368.365234 C323.798497,368.365234 322.923018,368.062666 322.231934,367.45752 C321.540849,366.852373 321.195312,365.994797 321.195312,364.884766 C321.195312,363.445305 321.75032,362.403324 322.860352,361.758789 C323.469079,361.407876 324.364252,361.157227 325.545898,361.006836 L326.587891,360.87793 Z M333.022461,358.579102 L333.022461,356.398438 L334.655273,356.398438 L334.655273,353.132812 L337.68457,353.132812 L337.68457,356.398438 L339.585938,356.398438 L339.585938,358.579102 L337.68457,358.579102 L337.68457,364.766602 C337.68457,365.246422 337.745442,365.54541 337.867188,365.663574 C337.988933,365.781739 338.361325,365.84082 338.984375,365.84082 C339.077474,365.84082 339.175943,365.83903 339.279785,365.835449 C339.383627,365.831868 339.485677,365.826497 339.585938,365.819336 L339.585938,368.107422 L338.135742,368.161133 C336.68912,368.211263 335.700849,367.960615 335.170898,367.40918 C334.827147,367.058266 334.655273,366.517582 334.655273,365.787109 L334.655273,358.579102 L333.022461,358.579102 Z M343.936523,364.261719 C344.000977,364.805992 344.140624,365.192707 344.355469,365.421875 C344.735028,365.83008 345.436844,366.03418 346.460938,366.03418 C347.062503,366.03418 347.540526,365.944662 347.89502,365.765625 C348.249513,365.586588 348.426758,365.318036 348.426758,364.959961 C348.426758,364.616209 348.28353,364.354819 347.99707,364.175781 C347.710611,363.996744 346.647145,363.688804 344.806641,363.251953 C343.481764,362.922524 342.547203,362.510745 342.00293,362.016602 C341.458656,361.52962 341.186523,360.827804 341.186523,359.911133 C341.186523,358.829747 341.610836,357.900557 342.459473,357.123535 C343.30811,356.346513 344.502271,355.958008 346.041992,355.958008 C347.502937,355.958008 348.693518,356.249834 349.61377,356.833496 C350.534022,357.417158 351.062174,358.425123 351.198242,359.857422 L348.136719,359.857422 C348.09375,359.46354 347.982748,359.152019 347.803711,358.922852 C347.467121,358.507485 346.89421,358.299805 346.084961,358.299805 C345.418942,358.299805 344.9445,358.403645 344.661621,358.611328 C344.378742,358.819011 344.237305,359.062499 344.237305,359.341797 C344.237305,359.69271 344.387694,359.946939 344.688477,360.104492 C344.989259,360.269207 346.052725,360.552081 347.878906,360.953125 C349.09636,361.239585 350.009437,361.672849 350.618164,362.25293 C351.21973,362.840172 351.520508,363.574214 351.520508,364.455078 C351.520508,365.61524 351.089034,366.562334 350.226074,367.296387 C349.363114,368.03044 348.029306,368.397461 346.224609,368.397461 C344.384105,368.397461 343.025232,368.008956 342.147949,367.231934 C341.270666,366.454911 340.832031,365.46485 340.832031,364.261719 L343.936523,364.261719 Z M358.105469,356.011719 C358.814457,356.011719 359.444659,356.167479 359.996094,356.479004 C360.547529,356.790529 360.995115,357.222002 361.338867,357.773438 L361.338867,352.1875 L364.443359,352.1875 L364.443359,368 L361.467773,368 L361.467773,366.37793 C361.030922,367.072595 360.533206,367.577472 359.974609,367.892578 C359.416013,368.207684 358.721358,368.365234 357.890625,368.365234 C356.52278,368.365234 355.371587,367.812017 354.437012,366.705566 C353.502437,365.599116 353.035156,364.179371 353.035156,362.446289 C353.035156,360.448232 353.495275,358.876308 354.415527,357.730469 C355.335779,356.58463 356.565748,356.011719 358.105469,356.011719 Z M358.771484,365.787109 C359.638025,365.787109 360.296873,365.464847 360.748047,364.820312 C361.199221,364.175778 361.424805,363.341476 361.424805,362.317383 C361.424805,360.885084 361.063155,359.861006 360.339844,359.245117 C359.895831,358.872719 359.380211,358.686523 358.792969,358.686523 C357.897782,358.686523 357.240725,359.024899 356.821777,359.70166 C356.40283,360.378421 356.193359,361.218094 356.193359,362.220703 C356.193359,363.302089 356.406411,364.166826 356.83252,364.814941 C357.258628,365.463057 357.904944,365.787109 358.771484,365.787109 Z" id="statsd" fill="#000000" fill-rule="nonzero"></path>
        <g id="Storage-Content-Delivery_AmazonS3" transform="translate(211.755814, 35.000000)" fill-rule="nonzero">
            <polygon id="Path" fill="#727985" points="2.50158728 5.90218248 0.351785711 6.99662691 0.351785711 25.7976188 2.50158728 26.8920632 7.77837294 16.3775792"></polygon>
            <polygon id="Path" fill="#969DAA" points="13.6805554 24.1559521 2.50158728 26.8920632 2.50158728 5.90218248 13.6805554 8.59920626 18.9573411 16.4166665"></polygon>
            <polygon id="Path" fill="#727985" points="13.6805554 24.1559521 24.8595236 26.8920632 26.7748013 16.6511903 24.8595236 5.90218248 13.6805554 8.59920626"></polygon>
            <polygon id="Path" fill="#969DAA" points="24.8595236 5.90218248 27.0093251 6.99662691 27.0093251 25.7976188 24.8595236 26.8920632"></polygon>
            <polygon id="Path" fill="#727985" points="8.79464277 19.856349 13.6805554 20.4817458 17.5501982 16.4166665 13.6805554 12.3515872 8.79464277 12.976984"></polygon>
            <polygon id="Path" fill="#676E7A" points="18.5664681 9.65456339 13.6805554 10.5535713 8.79464277 9.65456339 13.6805554 0.31269841"></polygon>
            <polygon id="Path" fill="#BDC4D1" points="18.5664681 23.1787696 13.6805554 22.2797617 8.79464277 23.1787696 13.6805554 32.5206346"></polygon>
            <polygon id="Path" fill="#969DAA" points="18.5664681 9.65456339 13.6805554 8.44285706 13.6805554 0.31269841 18.5664681 2.77519838"></polygon>
            <polygon id="Path" fill="#727985" points="8.79464277 9.65456339 13.6805554 8.44285706 13.6805554 0.31269841 8.79464277 2.77519838"></polygon>
            <polygon id="Path" fill="#969DAA" points="13.6805554 32.5206346 18.5664681 30.0581346 18.5664681 23.1787696 13.6805554 24.3904759"></polygon>
            <polygon id="Path" fill="#727985" points="13.6805554 32.5206346 8.79464277 30.0581346 8.79464277 23.1787696 13.6805554 24.3904759"></polygon>
            <polygon id="Path" fill="#969DAA" points="18.5664681 19.856349 13.6805554 20.4817458 13.6805554 12.3515872 18.5664681 12.976984"></polygon>
        </g>
        <path d="M252.5,173.5 L287.5,173.5 C289.432997,173.5 291,175.067003 291,177 L291,191 C291,192.932997 289.432997,194.5 287.5,194.5 L252.5,194.5 C250.567003,194.5 249,192.932997 249,191 L249,177 C249,175.067003 250.567003,173.5 252.5,173.5 Z M252.5,176.5 C252.223858,176.5 252,176.723858 252,177 L252,191 C252,191.276142 252.223858,191.5 252.5,191.5 L287.5,191.5 C287.776142,191.5 288,191.276142 288,191 L288,177 C288,176.723858 287.776142,176.5 287.5,176.5 L252.5,176.5 Z" id="Rectangle" fill="#BFC6D3" fill-rule="nonzero"></path>
        <polygon id="Path-2" fill="#BFC6D3" fill-rule="nonzero" points="250.5 202 289.5 202 289.5 199 250.5 199"></polygon>
        <polygon id="Path-11" fill="#BFC6D3" fill-rule="nonzero" points="250.5 206.5 250.5 218 253.5 218 253.5 206.5"></polygon>
        <polygon id="Path-11" fill="#BFC6D3" fill-rule="nonzero" points="286.5 206.5 286.5 218 289.5 218 289.5 206.5"></polygon>
        <polygon id="Path-11" fill="#BFC6D3" fill-rule="nonzero" points="274.5 206.5 274.5 218 277.5 218 277.5 206.5"></polygon>
        <polygon id="Path-11" fill="#BFC6D3" fill-rule="nonzero" points="262.5 206.5 262.5 218 265.5 218 265.5 206.5"></polygon>
    </g>
</svg>